<!--
 * This file is part of RS Cheat Sheets.
 *
 * RS Cheat Sheets is free software: you can redistribute it and/or modify
 * it under the terms of the GNU General Public License as published by
 * the Free Software Foundation, either version 3 of the License, or
 * (at your option) any later version.
 *
 * RS Cheat Sheets is distributed in the hope that it will be useful,
 * but WITHOUT ANY WARRANTY; without even the implied warranty of
 * MERCHANTABILITY or FITNESS FOR A PARTICULAR PURPOSE.  See the
 * GNU General Public License for more details.
 *
 * You should have received a copy of the GNU General Public License
 * along with RS Cheat Sheets. If not, see <https://www.gnu.org/licenses/>.
 */
-->

<svg xmlns="http://www.w3.org/2000/svg" width="16" height="16" fill="white" class="bi bi-file-earmark-excel" viewBox="0 0 16 16">
  <text x="3.9" y="11" font-size="7" fill="white">RS</text>
  <path d="M14 14V4.5L9.5 0H4a2 2 0 0 0-2 2v12a2 2 0 0 0 2 2h8a2 2 0 0 0 2-2M9.5 3A1.5 1.5 0 0 0 11 4.5h2V14a1 1 0 0 1-1 1H4a1 1 0 0 1-1-1V2a1 1 0 0 1 1-1h5.5z"/>
</svg>